<svg version="1.1" xmlns="http://www.w3.org/2000/svg" xmlns:xlink="http://www.w3.org/1999/xlink" width="1086" height="666"><defs><clipPath id="FrOmInuTBLvt"><path fill="none" stroke="none" d=" M 0 0 L 1086 0 L 1086 666 L 0 666 L 0 0 Z"/></clipPath></defs><g transform="scale(1,1)" clip-path="url(#FrOmInuTBLvt)"><g><rect fill="rgb(255,255,255)" stroke="none" x="0" y="0" width="1087" height="667" fill-opacity="1"/><path fill="none" stroke="rgb(192,192,192)" paint-order="fill stroke markers" d=" M 31.5 0.5 L 31.5 666.5 M 31.5 0.5 L 31.5 666.5 M 72.5 0.5 L 72.5 666.5 M 113.5 0.5 L 113.5 666.5 M 155.5 0.5 L 155.5 666.5 M 196.5 0.5 L 196.5 666.5 M 237.5 0.5 L 237.5 666.5 M 279.5 0.5 L 279.5 666.5 M 320.5 0.5 L 320.5 666.5 M 403.5 0.5 L 403.5 666.5 M 444.5 0.5 L 444.5 666.5 M 486.5 0.5 L 486.5 666.5 M 527.5 0.5 L 527.5 666.5 M 568.5 0.5 L 568.5 666.5 M 610.5 0.5 L 610.5 666.5 M 651.5 0.5 L 651.5 666.5 M 692.5 0.5 L 692.5 666.5 M 734.5 0.5 L 734.5 666.5 M 775.5 0.5 L 775.5 666.5 M 817.5 0.5 L 817.5 666.5 M 858.5 0.5 L 858.5 666.5 M 899.5 0.5 L 899.5 666.5 M 941.5 0.5 L 941.5 666.5 M 982.5 0.5 L 982.5 666.5 M 1023.5 0.5 L 1023.5 666.5 M 1065.5 0.5 L 1065.5 666.5" stroke-opacity="1" stroke-linecap="round" stroke-linejoin="round" stroke-miterlimit="10"/><path fill="none" stroke="rgb(192,192,192)" paint-order="fill stroke markers" d=" M 6.5 0.5 L 6.5 666.5 M 14.5 0.5 L 14.5 666.5 M 22.5 0.5 L 22.5 666.5 M 39.5 0.5 L 39.5 666.5 M 47.5 0.5 L 47.5 666.5 M 55.5 0.5 L 55.5 666.5 M 64.5 0.5 L 64.5 666.5 M 80.5 0.5 L 80.5 666.5 M 88.5 0.5 L 88.5 666.5 M 97.5 0.5 L 97.5 666.5 M 105.5 0.5 L 105.5 666.5 M 122.5 0.5 L 122.5 666.5 M 130.5 0.5 L 130.5 666.5 M 138.5 0.5 L 138.5 666.5 M 146.5 0.5 L 146.5 666.5 M 163.5 0.5 L 163.5 666.5 M 171.5 0.5 L 171.5 666.5 M 179.5 0.5 L 179.5 666.5 M 188.5 0.5 L 188.5 666.5 M 204.5 0.5 L 204.5 666.5 M 213.5 0.5 L 213.5 666.5 M 221.5 0.5 L 221.5 666.5 M 229.5 0.5 L 229.5 666.5 M 246.5 0.5 L 246.5 666.5 M 254.5 0.5 L 254.5 666.5 M 262.5 0.5 L 262.5 666.5 M 270.5 0.5 L 270.5 666.5 M 287.5 0.5 L 287.5 666.5 M 295.5 0.5 L 295.5 666.5 M 304.5 0.5 L 304.5 666.5 M 312.5 0.5 L 312.5 666.5 M 328.5 0.5 L 328.5 666.5 M 337.5 0.5 L 337.5 666.5 M 345.5 0.5 L 345.5 666.5 M 353.5 0.5 L 353.5 666.5 M 370.5 0.5 L 370.5 666.5 M 378.5 0.5 L 378.5 666.5 M 386.5 0.5 L 386.5 666.5 M 395.5 0.5 L 395.5 666.5 M 411.5 0.5 L 411.5 666.5 M 419.5 0.5 L 419.5 666.5 M 428.5 0.5 L 428.5 666.5 M 436.5 0.5 L 436.5 666.5 M 453.5 0.5 L 453.5 666.5 M 461.5 0.5 L 461.5 666.5 M 469.5 0.5 L 469.5 666.5 M 477.5 0.5 L 477.5 666.5 M 494.5 0.5 L 494.5 666.5 M 502.5 0.5 L 502.5 666.5 M 510.5 0.5 L 510.5 666.5 M 519.5 0.5 L 519.5 666.5 M 535.5 0.5 L 535.5 666.5 M 544.5 0.5 L 544.5 666.5 M 552.5 0.5 L 552.5 666.5 M 560.5 0.5 L 560.5 666.5 M 577.5 0.5 L 577.5 666.5 M 585.5 0.5 L 585.5 666.5 M 593.5 0.5 L 593.5 666.5 M 601.5 0.5 L 601.5 666.5 M 618.5 0.5 L 618.5 666.5 M 626.5 0.5 L 626.5 666.5 M 635.5 0.5 L 635.5 666.5 M 643.5 0.5 L 643.5 666.5 M 659.5 0.5 L 659.5 666.5 M 668.5 0.5 L 668.5 666.5 M 676.5 0.5 L 676.5 666.5 M 684.5 0.5 L 684.5 666.5 M 701.5 0.5 L 701.5 666.5 M 709.5 0.5 L 709.5 666.5 M 717.5 0.5 L 717.5 666.5 M 726.5 0.5 L 726.5 666.5 M 742.5 0.5 L 742.5 666.5 M 750.5 0.5 L 750.5 666.5 M 759.5 0.5 L 759.5 666.5 M 767.5 0.5 L 767.5 666.5 M 783.5 0.5 L 783.5 666.5 M 792.5 0.5 L 792.5 666.5 M 800.5 0.5 L 800.5 666.5 M 808.5 0.5 L 808.5 666.5 M 825.5 0.5 L 825.5 666.5 M 833.5 0.5 L 833.5 666.5 M 841.5 0.5 L 841.5 666.5 M 850.5 0.5 L 850.5 666.5 M 866.5 0.5 L 866.5 666.5 M 875.5 0.5 L 875.5 666.5 M 883.5 0.5 L 883.5 666.5 M 891.5 0.5 L 891.5 666.5 M 908.5 0.5 L 908.5 666.5 M 916.5 0.5 L 916.5 666.5 M 924.5 0.5 L 924.5 666.5 M 932.5 0.5 L 932.5 666.5 M 949.5 0.5 L 949.5 666.5 M 957.5 0.5 L 957.5 666.5 M 966.5 0.5 L 966.5 666.5 M 974.5 0.5 L 974.5 666.5 M 990.5 0.5 L 990.5 666.5 M 999.5 0.5 L 999.5 666.5 M 1007.5 0.5 L 1007.5 666.5 M 1015.5 0.5 L 1015.5 666.5 M 1032.5 0.5 L 1032.5 666.5 M 1040.5 0.5 L 1040.5 666.5 M 1048.5 0.5 L 1048.5 666.5 M 1057.5 0.5 L 1057.5 666.5 M 1073.5 0.5 L 1073.5 666.5 M 1081.5 0.5 L 1081.5 666.5" stroke-opacity="0.23529411764705882" stroke-linecap="round" stroke-linejoin="round" stroke-miterlimit="10"/><path fill="none" stroke="rgb(192,192,192)" paint-order="fill stroke markers" d=" M 0.5 52.5 L 1086.5 52.5 M 0.5 52.5 L 1086.5 52.5 M 0.5 104.5 L 1086.5 104.5 M 0.5 156.5 L 1086.5 156.5 M 0.5 208.5 L 1086.5 208.5 M 0.5 261.5 L 1086.5 261.5 M 0.5 313.5 L 1086.5 313.5 M 0.5 365.5 L 1086.5 365.5 M 0.5 417.5 L 1086.5 417.5 M 0.5 470.5 L 1086.5 470.5 M 0.5 522.5 L 1086.5 522.5 M 0.5 574.5 L 1086.5 574.5" stroke-opacity="1" stroke-linecap="round" stroke-linejoin="round" stroke-miterlimit="10"/><path fill="none" stroke="rgb(192,192,192)" paint-order="fill stroke markers" d=" M 0.5 10.5 L 1086.5 10.5 M 0.5 20.5 L 1086.5 20.5 M 0.5 31.5 L 1086.5 31.5 M 0.5 41.5 L 1086.5 41.5 M 0.5 62.5 L 1086.5 62.5 M 0.5 73.5 L 1086.5 73.5 M 0.5 83.5 L 1086.5 83.5 M 0.5 94.5 L 1086.5 94.5 M 0.5 114.5 L 1086.5 114.5 M 0.5 125.5 L 1086.5 125.5 M 0.5 135.5 L 1086.5 135.5 M 0.5 146.5 L 1086.5 146.5 M 0.5 167.5 L 1086.5 167.5 M 0.5 177.5 L 1086.5 177.5 M 0.5 188.5 L 1086.5 188.5 M 0.5 198.5 L 1086.5 198.5 M 0.5 219.5 L 1086.5 219.5 M 0.5 229.5 L 1086.5 229.5 M 0.5 240.5 L 1086.5 240.5 M 0.5 250.5 L 1086.5 250.5 M 0.5 271.5 L 1086.5 271.5 M 0.5 282.5 L 1086.5 282.5 M 0.5 292.5 L 1086.5 292.5 M 0.5 302.5 L 1086.5 302.5 M 0.5 323.5 L 1086.5 323.5 M 0.5 334.5 L 1086.5 334.5 M 0.5 344.5 L 1086.5 344.5 M 0.5 355.5 L 1086.5 355.5 M 0.5 376.5 L 1086.5 376.5 M 0.5 386.5 L 1086.5 386.5 M 0.5 396.5 L 1086.5 396.5 M 0.5 407.5 L 1086.5 407.5 M 0.5 428.5 L 1086.5 428.5 M 0.5 438.5 L 1086.5 438.5 M 0.5 449.5 L 1086.5 449.5 M 0.5 459.5 L 1086.5 459.5 M 0.5 480.5 L 1086.5 480.5 M 0.5 491.5 L 1086.5 491.5 M 0.5 501.5 L 1086.5 501.5 M 0.5 511.5 L 1086.5 511.5 M 0.5 532.5 L 1086.5 532.5 M 0.5 543.5 L 1086.5 543.5 M 0.5 553.5 L 1086.5 553.5 M 0.5 564.5 L 1086.5 564.5 M 0.5 585.5 L 1086.5 585.5 M 0.5 595.5 L 1086.5 595.5 M 0.5 605.5 L 1086.5 605.5 M 0.5 616.5 L 1086.5 616.5 M 0.5 637.5 L 1086.5 637.5 M 0.5 647.5 L 1086.5 647.5 M 0.5 658.5 L 1086.5 658.5" stroke-opacity="0.23529411764705882" stroke-linecap="round" stroke-linejoin="round" stroke-miterlimit="10"/><path fill="none" stroke="rgb(37,37,37)" paint-order="fill stroke markers" d=" M 362.5 2.5 L 362.5 666.5" stroke-opacity="1" stroke-miterlimit="10"/><path fill="none" stroke="rgb(37,37,37)" paint-order="fill stroke markers" d=" M 362.5 1.5 L 358.5 5.5" stroke-opacity="1" stroke-miterlimit="10"/><path fill="none" stroke="rgb(37,37,37)" paint-order="fill stroke markers" d=" M 362.5 1.5 L 366.5 5.5" stroke-opacity="1" stroke-miterlimit="10"/><path fill="none" stroke="rgb(37,37,37)" paint-order="fill stroke markers" d=" M 0.5 626.5 L 1084.5 626.5" stroke-opacity="1" stroke-miterlimit="10"/><path fill="none" stroke="rgb(37,37,37)" paint-order="fill stroke markers" d=" M 1085.5 626.5 L 1081.5 622.5" stroke-opacity="1" stroke-miterlimit="10"/><path fill="none" stroke="rgb(37,37,37)" paint-order="fill stroke markers" d=" M 1085.5 626.5 L 1081.5 630.5" stroke-opacity="1" stroke-miterlimit="10"/><text fill="rgb(37,37,37)" stroke="none" font-family="geogebra-sans-serif, sans-serif" font-size="12px" font-style="normal" font-weight="normal" text-decoration="normal" x="20" y="642" text-anchor="start" dominant-baseline="alphabetic" fill-opacity="1">–1.6</text><text fill="none" stroke="rgb(255,255,255)" font-family="geogebra-sans-serif, sans-serif" font-size="12px" font-style="normal" font-weight="normal" text-decoration="normal" x="20" y="642" text-anchor="start" dominant-baseline="alphabetic" stroke-opacity="1" stroke-linejoin="bevel" stroke-miterlimit="10" stroke-width="3">–1.6</text><text fill="rgb(37,37,37)" stroke="none" font-family="geogebra-sans-serif, sans-serif" font-size="12px" font-style="normal" font-weight="normal" text-decoration="normal" x="20" y="642" text-anchor="start" dominant-baseline="alphabetic" fill-opacity="1">–1.6</text><text fill="rgb(37,37,37)" stroke="none" font-family="geogebra-sans-serif, sans-serif" font-size="12px" font-style="normal" font-weight="normal" text-decoration="normal" x="61" y="642" text-anchor="start" dominant-baseline="alphabetic" fill-opacity="1">–1.4</text><text fill="none" stroke="rgb(255,255,255)" font-family="geogebra-sans-serif, sans-serif" font-size="12px" font-style="normal" font-weight="normal" text-decoration="normal" x="61" y="642" text-anchor="start" dominant-baseline="alphabetic" stroke-opacity="1" stroke-linejoin="bevel" stroke-miterlimit="10" stroke-width="3">–1.4</text><text fill="rgb(37,37,37)" stroke="none" font-family="geogebra-sans-serif, sans-serif" font-size="12px" font-style="normal" font-weight="normal" text-decoration="normal" x="61" y="642" text-anchor="start" dominant-baseline="alphabetic" fill-opacity="1">–1.4</text><text fill="rgb(37,37,37)" stroke="none" font-family="geogebra-sans-serif, sans-serif" font-size="12px" font-style="normal" font-weight="normal" text-decoration="normal" x="102" y="642" text-anchor="start" dominant-baseline="alphabetic" fill-opacity="1">–1.2</text><text fill="none" stroke="rgb(255,255,255)" font-family="geogebra-sans-serif, sans-serif" font-size="12px" font-style="normal" font-weight="normal" text-decoration="normal" x="102" y="642" text-anchor="start" dominant-baseline="alphabetic" stroke-opacity="1" stroke-linejoin="bevel" stroke-miterlimit="10" stroke-width="3">–1.2</text><text fill="rgb(37,37,37)" stroke="none" font-family="geogebra-sans-serif, sans-serif" font-size="12px" font-style="normal" font-weight="normal" text-decoration="normal" x="102" y="642" text-anchor="start" dominant-baseline="alphabetic" fill-opacity="1">–1.2</text><text fill="rgb(37,37,37)" stroke="none" font-family="geogebra-sans-serif, sans-serif" font-size="12px" font-style="normal" font-weight="normal" text-decoration="normal" x="150" y="642" text-anchor="start" dominant-baseline="alphabetic" fill-opacity="1">–1</text><text fill="none" stroke="rgb(255,255,255)" font-family="geogebra-sans-serif, sans-serif" font-size="12px" font-style="normal" font-weight="normal" text-decoration="normal" x="150" y="642" text-anchor="start" dominant-baseline="alphabetic" stroke-opacity="1" stroke-linejoin="bevel" stroke-miterlimit="10" stroke-width="3">–1</text><text fill="rgb(37,37,37)" stroke="none" font-family="geogebra-sans-serif, sans-serif" font-size="12px" font-style="normal" font-weight="normal" text-decoration="normal" x="150" y="642" text-anchor="start" dominant-baseline="alphabetic" fill-opacity="1">–1</text><text fill="rgb(37,37,37)" stroke="none" font-family="geogebra-sans-serif, sans-serif" font-size="12px" font-style="normal" font-weight="normal" text-decoration="normal" x="185" y="642" text-anchor="start" dominant-baseline="alphabetic" fill-opacity="1">–0.8</text><text fill="none" stroke="rgb(255,255,255)" font-family="geogebra-sans-serif, sans-serif" font-size="12px" font-style="normal" font-weight="normal" text-decoration="normal" x="185" y="642" text-anchor="start" dominant-baseline="alphabetic" stroke-opacity="1" stroke-linejoin="bevel" stroke-miterlimit="10" stroke-width="3">–0.8</text><text fill="rgb(37,37,37)" stroke="none" font-family="geogebra-sans-serif, sans-serif" font-size="12px" font-style="normal" font-weight="normal" text-decoration="normal" x="185" y="642" text-anchor="start" dominant-baseline="alphabetic" fill-opacity="1">–0.8</text><text fill="rgb(37,37,37)" stroke="none" font-family="geogebra-sans-serif, sans-serif" font-size="12px" font-style="normal" font-weight="normal" text-decoration="normal" x="226" y="642" text-anchor="start" dominant-baseline="alphabetic" fill-opacity="1">–0.6</text><text fill="none" stroke="rgb(255,255,255)" font-family="geogebra-sans-serif, sans-serif" font-size="12px" font-style="normal" font-weight="normal" text-decoration="normal" x="226" y="642" text-anchor="start" dominant-baseline="alphabetic" stroke-opacity="1" stroke-linejoin="bevel" stroke-miterlimit="10" stroke-width="3">–0.6</text><text fill="rgb(37,37,37)" stroke="none" font-family="geogebra-sans-serif, sans-serif" font-size="12px" font-style="normal" font-weight="normal" text-decoration="normal" x="226" y="642" text-anchor="start" dominant-baseline="alphabetic" fill-opacity="1">–0.6</text><text fill="rgb(37,37,37)" stroke="none" font-family="geogebra-sans-serif, sans-serif" font-size="12px" font-style="normal" font-weight="normal" text-decoration="normal" x="268" y="642" text-anchor="start" dominant-baseline="alphabetic" fill-opacity="1">–0.4</text><text fill="none" stroke="rgb(255,255,255)" font-family="geogebra-sans-serif, sans-serif" font-size="12px" font-style="normal" font-weight="normal" text-decoration="normal" x="268" y="642" text-anchor="start" dominant-baseline="alphabetic" stroke-opacity="1" stroke-linejoin="bevel" stroke-miterlimit="10" stroke-width="3">–0.4</text><text fill="rgb(37,37,37)" stroke="none" font-family="geogebra-sans-serif, sans-serif" font-size="12px" font-style="normal" font-weight="normal" text-decoration="normal" x="268" y="642" text-anchor="start" dominant-baseline="alphabetic" fill-opacity="1">–0.4</text><text fill="rgb(37,37,37)" stroke="none" font-family="geogebra-sans-serif, sans-serif" font-size="12px" font-style="normal" font-weight="normal" text-decoration="normal" x="309" y="642" text-anchor="start" dominant-baseline="alphabetic" fill-opacity="1">–0.2</text><text fill="none" stroke="rgb(255,255,255)" font-family="geogebra-sans-serif, sans-serif" font-size="12px" font-style="normal" font-weight="normal" text-decoration="normal" x="309" y="642" text-anchor="start" dominant-baseline="alphabetic" stroke-opacity="1" stroke-linejoin="bevel" stroke-miterlimit="10" stroke-width="3">–0.2</text><text fill="rgb(37,37,37)" stroke="none" font-family="geogebra-sans-serif, sans-serif" font-size="12px" font-style="normal" font-weight="normal" text-decoration="normal" x="309" y="642" text-anchor="start" dominant-baseline="alphabetic" fill-opacity="1">–0.2</text><text fill="rgb(37,37,37)" stroke="none" font-family="geogebra-sans-serif, sans-serif" font-size="12px" font-style="normal" font-weight="normal" text-decoration="normal" x="395" y="642" text-anchor="start" dominant-baseline="alphabetic" fill-opacity="1">0.2</text><text fill="none" stroke="rgb(255,255,255)" font-family="geogebra-sans-serif, sans-serif" font-size="12px" font-style="normal" font-weight="normal" text-decoration="normal" x="395" y="642" text-anchor="start" dominant-baseline="alphabetic" stroke-opacity="1" stroke-linejoin="bevel" stroke-miterlimit="10" stroke-width="3">0.2</text><text fill="rgb(37,37,37)" stroke="none" font-family="geogebra-sans-serif, sans-serif" font-size="12px" font-style="normal" font-weight="normal" text-decoration="normal" x="395" y="642" text-anchor="start" dominant-baseline="alphabetic" fill-opacity="1">0.2</text><text fill="rgb(37,37,37)" stroke="none" font-family="geogebra-sans-serif, sans-serif" font-size="12px" font-style="normal" font-weight="normal" text-decoration="normal" x="436" y="642" text-anchor="start" dominant-baseline="alphabetic" fill-opacity="1">0.4</text><text fill="none" stroke="rgb(255,255,255)" font-family="geogebra-sans-serif, sans-serif" font-size="12px" font-style="normal" font-weight="normal" text-decoration="normal" x="436" y="642" text-anchor="start" dominant-baseline="alphabetic" stroke-opacity="1" stroke-linejoin="bevel" stroke-miterlimit="10" stroke-width="3">0.4</text><text fill="rgb(37,37,37)" stroke="none" font-family="geogebra-sans-serif, sans-serif" font-size="12px" font-style="normal" font-weight="normal" text-decoration="normal" x="436" y="642" text-anchor="start" dominant-baseline="alphabetic" fill-opacity="1">0.4</text><text fill="rgb(37,37,37)" stroke="none" font-family="geogebra-sans-serif, sans-serif" font-size="12px" font-style="normal" font-weight="normal" text-decoration="normal" x="478" y="642" text-anchor="start" dominant-baseline="alphabetic" fill-opacity="1">0.6</text><text fill="none" stroke="rgb(255,255,255)" font-family="geogebra-sans-serif, sans-serif" font-size="12px" font-style="normal" font-weight="normal" text-decoration="normal" x="478" y="642" text-anchor="start" dominant-baseline="alphabetic" stroke-opacity="1" stroke-linejoin="bevel" stroke-miterlimit="10" stroke-width="3">0.6</text><text fill="rgb(37,37,37)" stroke="none" font-family="geogebra-sans-serif, sans-serif" font-size="12px" font-style="normal" font-weight="normal" text-decoration="normal" x="478" y="642" text-anchor="start" dominant-baseline="alphabetic" fill-opacity="1">0.6</text><text fill="rgb(37,37,37)" stroke="none" font-family="geogebra-sans-serif, sans-serif" font-size="12px" font-style="normal" font-weight="normal" text-decoration="normal" x="519" y="642" text-anchor="start" dominant-baseline="alphabetic" fill-opacity="1">0.8</text><text fill="none" stroke="rgb(255,255,255)" font-family="geogebra-sans-serif, sans-serif" font-size="12px" font-style="normal" font-weight="normal" text-decoration="normal" x="519" y="642" text-anchor="start" dominant-baseline="alphabetic" stroke-opacity="1" stroke-linejoin="bevel" stroke-miterlimit="10" stroke-width="3">0.8</text><text fill="rgb(37,37,37)" stroke="none" font-family="geogebra-sans-serif, sans-serif" font-size="12px" font-style="normal" font-weight="normal" text-decoration="normal" x="519" y="642" text-anchor="start" dominant-baseline="alphabetic" fill-opacity="1">0.8</text><text fill="rgb(37,37,37)" stroke="none" font-family="geogebra-sans-serif, sans-serif" font-size="12px" font-style="normal" font-weight="normal" text-decoration="normal" x="566" y="642" text-anchor="start" dominant-baseline="alphabetic" fill-opacity="1">1</text><text fill="none" stroke="rgb(255,255,255)" font-family="geogebra-sans-serif, sans-serif" font-size="12px" font-style="normal" font-weight="normal" text-decoration="normal" x="566" y="642" text-anchor="start" dominant-baseline="alphabetic" stroke-opacity="1" stroke-linejoin="bevel" stroke-miterlimit="10" stroke-width="3">1</text><text fill="rgb(37,37,37)" stroke="none" font-family="geogebra-sans-serif, sans-serif" font-size="12px" font-style="normal" font-weight="normal" text-decoration="normal" x="566" y="642" text-anchor="start" dominant-baseline="alphabetic" fill-opacity="1">1</text><text fill="rgb(37,37,37)" stroke="none" font-family="geogebra-sans-serif, sans-serif" font-size="12px" font-style="normal" font-weight="normal" text-decoration="normal" x="602" y="642" text-anchor="start" dominant-baseline="alphabetic" fill-opacity="1">1.2</text><text fill="none" stroke="rgb(255,255,255)" font-family="geogebra-sans-serif, sans-serif" font-size="12px" font-style="normal" font-weight="normal" text-decoration="normal" x="602" y="642" text-anchor="start" dominant-baseline="alphabetic" stroke-opacity="1" stroke-linejoin="bevel" stroke-miterlimit="10" stroke-width="3">1.2</text><text fill="rgb(37,37,37)" stroke="none" font-family="geogebra-sans-serif, sans-serif" font-size="12px" font-style="normal" font-weight="normal" text-decoration="normal" x="602" y="642" text-anchor="start" dominant-baseline="alphabetic" fill-opacity="1">1.2</text><text fill="rgb(37,37,37)" stroke="none" font-family="geogebra-sans-serif, sans-serif" font-size="12px" font-style="normal" font-weight="normal" text-decoration="normal" x="643" y="642" text-anchor="start" dominant-baseline="alphabetic" fill-opacity="1">1.4</text><text fill="none" stroke="rgb(255,255,255)" font-family="geogebra-sans-serif, sans-serif" font-size="12px" font-style="normal" font-weight="normal" text-decoration="normal" x="643" y="642" text-anchor="start" dominant-baseline="alphabetic" stroke-opacity="1" stroke-linejoin="bevel" stroke-miterlimit="10" stroke-width="3">1.4</text><text fill="rgb(37,37,37)" stroke="none" font-family="geogebra-sans-serif, sans-serif" font-size="12px" font-style="normal" font-weight="normal" text-decoration="normal" x="643" y="642" text-anchor="start" dominant-baseline="alphabetic" fill-opacity="1">1.4</text><text fill="rgb(37,37,37)" stroke="none" font-family="geogebra-sans-serif, sans-serif" font-size="12px" font-style="normal" font-weight="normal" text-decoration="normal" x="684" y="642" text-anchor="start" dominant-baseline="alphabetic" fill-opacity="1">1.6</text><text fill="none" stroke="rgb(255,255,255)" font-family="geogebra-sans-serif, sans-serif" font-size="12px" font-style="normal" font-weight="normal" text-decoration="normal" x="684" y="642" text-anchor="start" dominant-baseline="alphabetic" stroke-opacity="1" stroke-linejoin="bevel" stroke-miterlimit="10" stroke-width="3">1.6</text><text fill="rgb(37,37,37)" stroke="none" font-family="geogebra-sans-serif, sans-serif" font-size="12px" font-style="normal" font-weight="normal" text-decoration="normal" x="684" y="642" text-anchor="start" dominant-baseline="alphabetic" fill-opacity="1">1.6</text><text fill="rgb(37,37,37)" stroke="none" font-family="geogebra-sans-serif, sans-serif" font-size="12px" font-style="normal" font-weight="normal" text-decoration="normal" x="726" y="642" text-anchor="start" dominant-baseline="alphabetic" fill-opacity="1">1.8</text><text fill="none" stroke="rgb(255,255,255)" font-family="geogebra-sans-serif, sans-serif" font-size="12px" font-style="normal" font-weight="normal" text-decoration="normal" x="726" y="642" text-anchor="start" dominant-baseline="alphabetic" stroke-opacity="1" stroke-linejoin="bevel" stroke-miterlimit="10" stroke-width="3">1.8</text><text fill="rgb(37,37,37)" stroke="none" font-family="geogebra-sans-serif, sans-serif" font-size="12px" font-style="normal" font-weight="normal" text-decoration="normal" x="726" y="642" text-anchor="start" dominant-baseline="alphabetic" fill-opacity="1">1.8</text><text fill="rgb(37,37,37)" stroke="none" font-family="geogebra-sans-serif, sans-serif" font-size="12px" font-style="normal" font-weight="normal" text-decoration="normal" x="773" y="642" text-anchor="start" dominant-baseline="alphabetic" fill-opacity="1">2</text><text fill="none" stroke="rgb(255,255,255)" font-family="geogebra-sans-serif, sans-serif" font-size="12px" font-style="normal" font-weight="normal" text-decoration="normal" x="773" y="642" text-anchor="start" dominant-baseline="alphabetic" stroke-opacity="1" stroke-linejoin="bevel" stroke-miterlimit="10" stroke-width="3">2</text><text fill="rgb(37,37,37)" stroke="none" font-family="geogebra-sans-serif, sans-serif" font-size="12px" font-style="normal" font-weight="normal" text-decoration="normal" x="773" y="642" text-anchor="start" dominant-baseline="alphabetic" fill-opacity="1">2</text><text fill="rgb(37,37,37)" stroke="none" font-family="geogebra-sans-serif, sans-serif" font-size="12px" font-style="normal" font-weight="normal" text-decoration="normal" x="809" y="642" text-anchor="start" dominant-baseline="alphabetic" fill-opacity="1">2.2</text><text fill="none" stroke="rgb(255,255,255)" font-family="geogebra-sans-serif, sans-serif" font-size="12px" font-style="normal" font-weight="normal" text-decoration="normal" x="809" y="642" text-anchor="start" dominant-baseline="alphabetic" stroke-opacity="1" stroke-linejoin="bevel" stroke-miterlimit="10" stroke-width="3">2.2</text><text fill="rgb(37,37,37)" stroke="none" font-family="geogebra-sans-serif, sans-serif" font-size="12px" font-style="normal" font-weight="normal" text-decoration="normal" x="809" y="642" text-anchor="start" dominant-baseline="alphabetic" fill-opacity="1">2.2</text><text fill="rgb(37,37,37)" stroke="none" font-family="geogebra-sans-serif, sans-serif" font-size="12px" font-style="normal" font-weight="normal" text-decoration="normal" x="850" y="642" text-anchor="start" dominant-baseline="alphabetic" fill-opacity="1">2.4</text><text fill="none" stroke="rgb(255,255,255)" font-family="geogebra-sans-serif, sans-serif" font-size="12px" font-style="normal" font-weight="normal" text-decoration="normal" x="850" y="642" text-anchor="start" dominant-baseline="alphabetic" stroke-opacity="1" stroke-linejoin="bevel" stroke-miterlimit="10" stroke-width="3">2.4</text><text fill="rgb(37,37,37)" stroke="none" font-family="geogebra-sans-serif, sans-serif" font-size="12px" font-style="normal" font-weight="normal" text-decoration="normal" x="850" y="642" text-anchor="start" dominant-baseline="alphabetic" fill-opacity="1">2.4</text><text fill="rgb(37,37,37)" stroke="none" font-family="geogebra-sans-serif, sans-serif" font-size="12px" font-style="normal" font-weight="normal" text-decoration="normal" x="891" y="642" text-anchor="start" dominant-baseline="alphabetic" fill-opacity="1">2.6</text><text fill="none" stroke="rgb(255,255,255)" font-family="geogebra-sans-serif, sans-serif" font-size="12px" font-style="normal" font-weight="normal" text-decoration="normal" x="891" y="642" text-anchor="start" dominant-baseline="alphabetic" stroke-opacity="1" stroke-linejoin="bevel" stroke-miterlimit="10" stroke-width="3">2.6</text><text fill="rgb(37,37,37)" stroke="none" font-family="geogebra-sans-serif, sans-serif" font-size="12px" font-style="normal" font-weight="normal" text-decoration="normal" x="891" y="642" text-anchor="start" dominant-baseline="alphabetic" fill-opacity="1">2.6</text><text fill="rgb(37,37,37)" stroke="none" font-family="geogebra-sans-serif, sans-serif" font-size="12px" font-style="normal" font-weight="normal" text-decoration="normal" x="933" y="642" text-anchor="start" dominant-baseline="alphabetic" fill-opacity="1">2.8</text><text fill="none" stroke="rgb(255,255,255)" font-family="geogebra-sans-serif, sans-serif" font-size="12px" font-style="normal" font-weight="normal" text-decoration="normal" x="933" y="642" text-anchor="start" dominant-baseline="alphabetic" stroke-opacity="1" stroke-linejoin="bevel" stroke-miterlimit="10" stroke-width="3">2.8</text><text fill="rgb(37,37,37)" stroke="none" font-family="geogebra-sans-serif, sans-serif" font-size="12px" font-style="normal" font-weight="normal" text-decoration="normal" x="933" y="642" text-anchor="start" dominant-baseline="alphabetic" fill-opacity="1">2.8</text><text fill="rgb(37,37,37)" stroke="none" font-family="geogebra-sans-serif, sans-serif" font-size="12px" font-style="normal" font-weight="normal" text-decoration="normal" x="980" y="642" text-anchor="start" dominant-baseline="alphabetic" fill-opacity="1">3</text><text fill="none" stroke="rgb(255,255,255)" font-family="geogebra-sans-serif, sans-serif" font-size="12px" font-style="normal" font-weight="normal" text-decoration="normal" x="980" y="642" text-anchor="start" dominant-baseline="alphabetic" stroke-opacity="1" stroke-linejoin="bevel" stroke-miterlimit="10" stroke-width="3">3</text><text fill="rgb(37,37,37)" stroke="none" font-family="geogebra-sans-serif, sans-serif" font-size="12px" font-style="normal" font-weight="normal" text-decoration="normal" x="980" y="642" text-anchor="start" dominant-baseline="alphabetic" fill-opacity="1">3</text><text fill="rgb(37,37,37)" stroke="none" font-family="geogebra-sans-serif, sans-serif" font-size="12px" font-style="normal" font-weight="normal" text-decoration="normal" x="1015" y="642" text-anchor="start" dominant-baseline="alphabetic" fill-opacity="1">3.2</text><text fill="none" stroke="rgb(255,255,255)" font-family="geogebra-sans-serif, sans-serif" font-size="12px" font-style="normal" font-weight="normal" text-decoration="normal" x="1015" y="642" text-anchor="start" dominant-baseline="alphabetic" stroke-opacity="1" stroke-linejoin="bevel" stroke-miterlimit="10" stroke-width="3">3.2</text><text fill="rgb(37,37,37)" stroke="none" font-family="geogebra-sans-serif, sans-serif" font-size="12px" font-style="normal" font-weight="normal" text-decoration="normal" x="1015" y="642" text-anchor="start" dominant-baseline="alphabetic" fill-opacity="1">3.2</text><text fill="rgb(37,37,37)" stroke="none" font-family="geogebra-sans-serif, sans-serif" font-size="12px" font-style="normal" font-weight="normal" text-decoration="normal" x="1057" y="642" text-anchor="start" dominant-baseline="alphabetic" fill-opacity="1">3.4</text><text fill="none" stroke="rgb(255,255,255)" font-family="geogebra-sans-serif, sans-serif" font-size="12px" font-style="normal" font-weight="normal" text-decoration="normal" x="1057" y="642" text-anchor="start" dominant-baseline="alphabetic" stroke-opacity="1" stroke-linejoin="bevel" stroke-miterlimit="10" stroke-width="3">3.4</text><text fill="rgb(37,37,37)" stroke="none" font-family="geogebra-sans-serif, sans-serif" font-size="12px" font-style="normal" font-weight="normal" text-decoration="normal" x="1057" y="642" text-anchor="start" dominant-baseline="alphabetic" fill-opacity="1">3.4</text><text fill="rgb(37,37,37)" stroke="none" font-family="geogebra-sans-serif, sans-serif" font-size="12px" font-style="normal" font-weight="normal" text-decoration="normal" x="348" y="579" text-anchor="start" dominant-baseline="alphabetic" fill-opacity="1">1</text><text fill="none" stroke="rgb(255,255,255)" font-family="geogebra-sans-serif, sans-serif" font-size="12px" font-style="normal" font-weight="normal" text-decoration="normal" x="348" y="579" text-anchor="start" dominant-baseline="alphabetic" stroke-opacity="1" stroke-linejoin="bevel" stroke-miterlimit="10" stroke-width="3">1</text><text fill="rgb(37,37,37)" stroke="none" font-family="geogebra-sans-serif, sans-serif" font-size="12px" font-style="normal" font-weight="normal" text-decoration="normal" x="348" y="579" text-anchor="start" dominant-baseline="alphabetic" fill-opacity="1">1</text><text fill="rgb(37,37,37)" stroke="none" font-family="geogebra-sans-serif, sans-serif" font-size="12px" font-style="normal" font-weight="normal" text-decoration="normal" x="348" y="527" text-anchor="start" dominant-baseline="alphabetic" fill-opacity="1">2</text><text fill="none" stroke="rgb(255,255,255)" font-family="geogebra-sans-serif, sans-serif" font-size="12px" font-style="normal" font-weight="normal" text-decoration="normal" x="348" y="527" text-anchor="start" dominant-baseline="alphabetic" stroke-opacity="1" stroke-linejoin="bevel" stroke-miterlimit="10" stroke-width="3">2</text><text fill="rgb(37,37,37)" stroke="none" font-family="geogebra-sans-serif, sans-serif" font-size="12px" font-style="normal" font-weight="normal" text-decoration="normal" x="348" y="527" text-anchor="start" dominant-baseline="alphabetic" fill-opacity="1">2</text><text fill="rgb(37,37,37)" stroke="none" font-family="geogebra-sans-serif, sans-serif" font-size="12px" font-style="normal" font-weight="normal" text-decoration="normal" x="348" y="475" text-anchor="start" dominant-baseline="alphabetic" fill-opacity="1">3</text><text fill="none" stroke="rgb(255,255,255)" font-family="geogebra-sans-serif, sans-serif" font-size="12px" font-style="normal" font-weight="normal" text-decoration="normal" x="348" y="475" text-anchor="start" dominant-baseline="alphabetic" stroke-opacity="1" stroke-linejoin="bevel" stroke-miterlimit="10" stroke-width="3">3</text><text fill="rgb(37,37,37)" stroke="none" font-family="geogebra-sans-serif, sans-serif" font-size="12px" font-style="normal" font-weight="normal" text-decoration="normal" x="348" y="475" text-anchor="start" dominant-baseline="alphabetic" fill-opacity="1">3</text><text fill="rgb(37,37,37)" stroke="none" font-family="geogebra-sans-serif, sans-serif" font-size="12px" font-style="normal" font-weight="normal" text-decoration="normal" x="348" y="422" text-anchor="start" dominant-baseline="alphabetic" fill-opacity="1">4</text><text fill="none" stroke="rgb(255,255,255)" font-family="geogebra-sans-serif, sans-serif" font-size="12px" font-style="normal" font-weight="normal" text-decoration="normal" x="348" y="422" text-anchor="start" dominant-baseline="alphabetic" stroke-opacity="1" stroke-linejoin="bevel" stroke-miterlimit="10" stroke-width="3">4</text><text fill="rgb(37,37,37)" stroke="none" font-family="geogebra-sans-serif, sans-serif" font-size="12px" font-style="normal" font-weight="normal" text-decoration="normal" x="348" y="422" text-anchor="start" dominant-baseline="alphabetic" fill-opacity="1">4</text><text fill="rgb(37,37,37)" stroke="none" font-family="geogebra-sans-serif, sans-serif" font-size="12px" font-style="normal" font-weight="normal" text-decoration="normal" x="348" y="370" text-anchor="start" dominant-baseline="alphabetic" fill-opacity="1">5</text><text fill="none" stroke="rgb(255,255,255)" font-family="geogebra-sans-serif, sans-serif" font-size="12px" font-style="normal" font-weight="normal" text-decoration="normal" x="348" y="370" text-anchor="start" dominant-baseline="alphabetic" stroke-opacity="1" stroke-linejoin="bevel" stroke-miterlimit="10" stroke-width="3">5</text><text fill="rgb(37,37,37)" stroke="none" font-family="geogebra-sans-serif, sans-serif" font-size="12px" font-style="normal" font-weight="normal" text-decoration="normal" x="348" y="370" text-anchor="start" dominant-baseline="alphabetic" fill-opacity="1">5</text><text fill="rgb(37,37,37)" stroke="none" font-family="geogebra-sans-serif, sans-serif" font-size="12px" font-style="normal" font-weight="normal" text-decoration="normal" x="348" y="318" text-anchor="start" dominant-baseline="alphabetic" fill-opacity="1">6</text><text fill="none" stroke="rgb(255,255,255)" font-family="geogebra-sans-serif, sans-serif" font-size="12px" font-style="normal" font-weight="normal" text-decoration="normal" x="348" y="318" text-anchor="start" dominant-baseline="alphabetic" stroke-opacity="1" stroke-linejoin="bevel" stroke-miterlimit="10" stroke-width="3">6</text><text fill="rgb(37,37,37)" stroke="none" font-family="geogebra-sans-serif, sans-serif" font-size="12px" font-style="normal" font-weight="normal" text-decoration="normal" x="348" y="318" text-anchor="start" dominant-baseline="alphabetic" fill-opacity="1">6</text><text fill="rgb(37,37,37)" stroke="none" font-family="geogebra-sans-serif, sans-serif" font-size="12px" font-style="normal" font-weight="normal" text-decoration="normal" x="348" y="266" text-anchor="start" dominant-baseline="alphabetic" fill-opacity="1">7</text><text fill="none" stroke="rgb(255,255,255)" font-family="geogebra-sans-serif, sans-serif" font-size="12px" font-style="normal" font-weight="normal" text-decoration="normal" x="348" y="266" text-anchor="start" dominant-baseline="alphabetic" stroke-opacity="1" stroke-linejoin="bevel" stroke-miterlimit="10" stroke-width="3">7</text><text fill="rgb(37,37,37)" stroke="none" font-family="geogebra-sans-serif, sans-serif" font-size="12px" font-style="normal" font-weight="normal" text-decoration="normal" x="348" y="266" text-anchor="start" dominant-baseline="alphabetic" fill-opacity="1">7</text><text fill="rgb(37,37,37)" stroke="none" font-family="geogebra-sans-serif, sans-serif" font-size="12px" font-style="normal" font-weight="normal" text-decoration="normal" x="348" y="213" text-anchor="start" dominant-baseline="alphabetic" fill-opacity="1">8</text><text fill="none" stroke="rgb(255,255,255)" font-family="geogebra-sans-serif, sans-serif" font-size="12px" font-style="normal" font-weight="normal" text-decoration="normal" x="348" y="213" text-anchor="start" dominant-baseline="alphabetic" stroke-opacity="1" stroke-linejoin="bevel" stroke-miterlimit="10" stroke-width="3">8</text><text fill="rgb(37,37,37)" stroke="none" font-family="geogebra-sans-serif, sans-serif" font-size="12px" font-style="normal" font-weight="normal" text-decoration="normal" x="348" y="213" text-anchor="start" dominant-baseline="alphabetic" fill-opacity="1">8</text><text fill="rgb(37,37,37)" stroke="none" font-family="geogebra-sans-serif, sans-serif" font-size="12px" font-style="normal" font-weight="normal" text-decoration="normal" x="348" y="161" text-anchor="start" dominant-baseline="alphabetic" fill-opacity="1">9</text><text fill="none" stroke="rgb(255,255,255)" font-family="geogebra-sans-serif, sans-serif" font-size="12px" font-style="normal" font-weight="normal" text-decoration="normal" x="348" y="161" text-anchor="start" dominant-baseline="alphabetic" stroke-opacity="1" stroke-linejoin="bevel" stroke-miterlimit="10" stroke-width="3">9</text><text fill="rgb(37,37,37)" stroke="none" font-family="geogebra-sans-serif, sans-serif" font-size="12px" font-style="normal" font-weight="normal" text-decoration="normal" x="348" y="161" text-anchor="start" dominant-baseline="alphabetic" fill-opacity="1">9</text><text fill="rgb(37,37,37)" stroke="none" font-family="geogebra-sans-serif, sans-serif" font-size="12px" font-style="normal" font-weight="normal" text-decoration="normal" x="341" y="109" text-anchor="start" dominant-baseline="alphabetic" fill-opacity="1">10</text><text fill="none" stroke="rgb(255,255,255)" font-family="geogebra-sans-serif, sans-serif" font-size="12px" font-style="normal" font-weight="normal" text-decoration="normal" x="341" y="109" text-anchor="start" dominant-baseline="alphabetic" stroke-opacity="1" stroke-linejoin="bevel" stroke-miterlimit="10" stroke-width="3">10</text><text fill="rgb(37,37,37)" stroke="none" font-family="geogebra-sans-serif, sans-serif" font-size="12px" font-style="normal" font-weight="normal" text-decoration="normal" x="341" y="109" text-anchor="start" dominant-baseline="alphabetic" fill-opacity="1">10</text><text fill="rgb(37,37,37)" stroke="none" font-family="geogebra-sans-serif, sans-serif" font-size="12px" font-style="normal" font-weight="normal" text-decoration="normal" x="342" y="57" text-anchor="start" dominant-baseline="alphabetic" fill-opacity="1">11</text><text fill="none" stroke="rgb(255,255,255)" font-family="geogebra-sans-serif, sans-serif" font-size="12px" font-style="normal" font-weight="normal" text-decoration="normal" x="342" y="57" text-anchor="start" dominant-baseline="alphabetic" stroke-opacity="1" stroke-linejoin="bevel" stroke-miterlimit="10" stroke-width="3">11</text><text fill="rgb(37,37,37)" stroke="none" font-family="geogebra-sans-serif, sans-serif" font-size="12px" font-style="normal" font-weight="normal" text-decoration="normal" x="342" y="57" text-anchor="start" dominant-baseline="alphabetic" fill-opacity="1">11</text><text fill="rgb(37,37,37)" stroke="none" font-family="geogebra-sans-serif, sans-serif" font-size="12px" font-style="normal" font-weight="normal" text-decoration="normal" x="348" y="642" text-anchor="start" dominant-baseline="alphabetic" fill-opacity="1">0</text><text fill="none" stroke="rgb(255,255,255)" font-family="geogebra-sans-serif, sans-serif" font-size="12px" font-style="normal" font-weight="normal" text-decoration="normal" x="348" y="642" text-anchor="start" dominant-baseline="alphabetic" stroke-opacity="1" stroke-linejoin="bevel" stroke-miterlimit="10" stroke-width="3">0</text><text fill="rgb(37,37,37)" stroke="none" font-family="geogebra-sans-serif, sans-serif" font-size="12px" font-style="normal" font-weight="normal" text-decoration="normal" x="348" y="642" text-anchor="start" dominant-baseline="alphabetic" fill-opacity="1">0</text><path fill="none" stroke="rgb(46,125,50)" paint-order="fill stroke markers" d=" M 78.48046875 679.7763180014019 L 80.6015625 670.4014324682472 L 82.72265625 661.2610246584097 L 84.84375 652.3522491822129 L 86.96484375 643.672274509004 L 89.0859375 635.2182829671548 L 91.20703125 626.9874707440616 L 93.328125 618.9770478861446 L 95.44921875 611.1842382988486 L 97.5703125 603.6062797466425 L 99.69140625 596.2404238530194 L 101.8125 589.0839361004969 L 103.93359375 582.1340958306167 L 106.0546875 575.3881962439451 L 108.17578125 568.8435444000723 L 110.296875 562.497461217613 L 112.41796875 556.3472814742062 L 114.5390625 550.3903538065149 L 116.66015625 544.624040710227 L 118.78125 539.0457185400539 L 120.90234375 533.6527775097321 L 123.0234375 528.4426216920217 L 127.265625 518.5603512805982 L 131.5078125 509.3784170683523 L 135.75 500.87655056224145 L 139.9921875 493.0347050136115 L 144.234375 485.833055418197 L 148.4765625 479.25199851612103 L 152.71875 473.27215279189534 L 156.9609375 467.87435847442026 L 161.203125 463.03967753698464 L 165.4453125 458.74939369726604 L 169.6875 454.9850124173304 L 173.9296875 451.7282609036324 L 178.171875 448.96108810701537 L 182.4140625 446.6656647227111 L 186.65625 444.8243831903399 L 190.8984375 443.4198576939109 L 195.140625 442.4349241618217 L 199.3828125 441.85264026685843 L 203.625 441.65628542619584 L 207.8671875 441.8293608013974 L 212.109375 442.35558929841494 L 216.3515625 443.2189155675891 L 220.59375 444.4035060036489 L 224.8359375 445.89374874571206 L 229.078125 447.674253677285 L 233.3203125 449.7298524262625 L 237.5625 452.04559836492814 L 241.8046875 454.60676660995387 L 246.046875 457.3988540224004 L 250.2890625 460.40757920771705 L 254.53125 463.6188825157416 L 258.7734375 467.01892604070036 L 263.015625 470.59409362120846 L 267.2578125 474.3309908402695 L 271.5 478.2164450252757 L 275.7421875 482.23750524800766 L 279.984375 486.3814423246349 L 284.2265625 490.63574881571543 L 288.46875 494.98813902619565 L 292.7109375 499.4265490054107 L 296.953125 503.93913654708433 L 301.1953125 508.51428118932887 L 305.4375 513.1405842146452 L 309.6796875 517.8068686499228 L 313.921875 522.5021792664397 L 318.1640625 527.2157825798627 L 322.40625 531.9371668502469 L 326.6484375 536.6560420820362 L 330.890625 541.3623400240629 L 335.1328125 546.0462141695482 L 339.375 550.6980397561017 L 343.6171875 555.3084137657214 L 347.859375 559.8681549247942 L 352.1015625 564.3683037040955 L 356.34375 568.8001223187892 L 360.5859375 573.155094728428 L 364.828125 577.4249266369528 L 369.0703125 581.6015454926934 L 373.3125 585.6771004883682 L 377.5546875 589.6439625610839 L 381.796875 593.4947243923361 L 386.0390625 597.222200408009 L 390.28125 600.8194267783751 L 394.5234375 604.2796614180958 L 398.765625 607.5963839862208 L 403.0078125 610.7632958861884 L 407.25 613.774320265826 L 411.4921875 616.623602017349 L 415.734375 619.3055077773614 L 419.9765625 621.8146259268563 L 424.21875 624.1457665912149 L 428.4609375 626.2939616402072 L 432.703125 628.2544646879918 L 436.9453125 630.0227510931157 L 441.1875 631.5945179585148 L 445.4296875 632.9656841315133 L 449.671875 634.132390203824 L 453.9140625 635.0909985115486 L 458.15625 635.8380931351771 L 462.3984375 636.3704798995882 L 466.640625 636.6851863740491 L 470.8828125 636.7794618722156 L 475.125 636.6507774521322 L 479.3671875 636.2968259162319 L 483.609375 635.7155218113364 L 487.8515625 634.9050014286557 L 492.09375 633.8636228037888 L 496.3359375 632.5899657167229 L 500.578125 631.082831691834 L 504.8203125 629.3412439978869 L 509.0625 627.3644476480343 L 513.3046875 625.1519093998182 L 517.546875 622.703317755169 L 521.7890625 620.0185829604053 L 526.03125 617.0978370062348 L 530.2734375 613.9414336277537 L 534.515625 610.5499483044464 L 538.7578125 606.9241782601863 L 543 603.0651424632352 L 547.2421875 598.9740816262436 L 551.484375 594.6524582062505 L 555.7265625 590.1019564046835 L 559.96875 585.3244821673587 L 564.2109375 580.322163184481 L 568.453125 575.0973488906438 L 572.6953125 569.6526104648291 L 576.9375 563.9907408304074 L 581.1796875 558.1147546551377 L 585.421875 552.0278883511679 L 589.6640625 545.7336000750344 L 593.90625 539.2355697276618 L 598.1484375 532.5376989543638 L 602.390625 525.6441111448426 L 606.6328125 518.5591514331886 L 610.875 511.2873866978813 L 615.1171875 503.83360556178843 L 619.359375 496.2028183921664 L 623.6015625 488.4002573006603 L 627.84375 480.4313761433038 L 632.0859375 472.301850520519 L 636.328125 464.0175777771167 L 640.5703125 455.58467700229636 L 644.8125 447.00948902964586 L 649.0546875 438.29857643714183 L 653.296875 429.45872354714936 L 657.5390625 420.49693642642217 L 661.78125 411.42044288610265 L 666.0234375 402.23669248172166 L 670.265625 392.9533565131988 L 674.5078125 383.578328024842 L 678.75 374.11972180534804 L 682.9921875 364.58587438780216 L 687.234375 354.98534404967825 L 691.4765625 345.32691081283866 L 695.71875 335.6195764435345 L 699.9609375 325.87256445240536 L 704.203125 316.09532009447946 L 708.4453125 306.2975103691736 L 712.6875 296.48902402029313 L 716.9296875 286.67997153603204 L 721.171875 276.88068514897293 L 725.4140625 267.1017188360869 L 729.65625 257.35384831873364 L 733.8984375 247.6480710626616 L 738.140625 237.99560627800764 L 742.3828125 228.40789491929723 L 746.625 218.89659968544447 L 750.8671875 209.47360501975209 L 755.109375 200.15101710991132 L 759.3515625 190.94116388800205 L 763.59375 181.85659503049266 L 767.8359375 172.91008195824026 L 772.078125 164.11461783649037 L 776.3203125 155.4834175748773 L 780.5625 147.02991782742384 L 784.8046875 138.76777699254131 L 789.046875 130.71087521302974 L 793.2890625 122.8733143760777 L 797.53125 115.2694181132623 L 801.7734375 107.91373180054927 L 806.015625 100.82102255829307 L 810.2578125 94.00627925123638 L 814.5 87.48471248851092 L 818.7421875 81.27175462363675 L 822.984375 75.38305975452249 L 827.2265625 69.83450372346545 L 831.46875 64.64218411715149 L 835.7109375 59.82242026665506 L 839.953125 55.391753247439055 L 844.1953125 51.3669458793554 L 848.4375 47.76498272664401 L 852.6796875 44.60307009793382 L 856.921875 41.898636046242245 L 861.1640625 39.66933036897524 L 865.40625 37.93302460792745 L 869.6484375 36.70781204928187 L 873.890625 36.01200772361028 L 878.1328125 35.86414840587315 L 882.375 36.282992615419175 L 886.6171875 37.28752061598607 L 890.859375 38.89693441569989 L 895.1015625 41.13065776707526 L 899.34375 44.0083361670155 L 903.5859375 47.549836856812476 L 907.828125 51.77524882214664 L 912.0703125 56.70488279308688 L 916.3125 62.35927124409113 L 920.5546875 68.75916839400531 L 924.796875 75.92555020606437 L 929.0390625 83.8796143878917 L 933.28125 92.64278039149929 L 937.5234375 102.23668941328776 L 939.64453125 107.35199606310618 L 941.765625 112.68320439404613 L 943.88671875 118.23308192126689 L 946.0078125 124.00441001895217 L 948.12890625 129.99998392030994 L 950.25 136.2226127175723 L 952.37109375 142.67511936199588 L 954.4921875 149.36034066386145 L 956.61328125 156.28112729247403 L 958.734375 163.44034377616305 L 960.85546875 170.84086850228215 L 962.9765625 178.4855937172092 L 965.09765625 186.3774255263466 L 967.21875 194.5192838941207 L 969.33984375 202.9141026439824 L 971.4609375 211.56482945840673 L 973.58203125 220.47442587889316 L 975.703125 229.64586730596523 L 977.82421875 239.08214299917097 L 979.9453125 248.78625607708256 L 982.06640625 258.76122351729657 L 983.126953125 263.8512242183427 L 984.1875 269.01007615643385 L 985.248046875 274.23816035161946 L 986.30859375 279.5358586901394 L 987.369140625 284.90355392442115 L 988.4296875 290.34162967308265 L 989.490234375 295.85047042092935 L 990.55078125 301.4304615189573 L 991.611328125 307.08198918434994 L 992.671875 312.80544050048127 L 993.732421875 318.6012034169129 L 994.79296875 324.4696667493968 L 995.853515625 330.41122017987266 L 996.9140625 336.4262542564705 L 997.974609375 342.51516039350787 L 999.03515625 348.678330871493 L 1000.095703125 354.91615883712154 L 1001.15625 361.22903830327965 L 1002.216796875 367.61736414904095 L 1003.27734375 374.08153211966965 L 1004.337890625 380.62193882661757 L 1005.3984375 387.2389817475268 L 1006.458984375 393.9330592262272 L 1007.51953125 400.70457047273896 L 1008.580078125 407.55391556327 L 1009.640625 414.4814954402185 L 1010.701171875 421.4877119121703 L 1011.76171875 428.57296765390186 L 1012.822265625 435.7376662063769 L 1013.8828125 442.9822119767499 L 1014.943359375 450.3070102383627 L 1016.00390625 457.7124671307477 L 1017.064453125 465.1989896596249 L 1018.125 472.7669856969047 L 1019.185546875 480.41686398068515 L 1020.24609375 488.1490341152546 L 1021.306640625 495.9639065710892 L 1022.3671875 503.8618926848554 L 1023.427734375 511.8434046594072 L 1024.48828125 519.9088555637893 L 1025.548828125 528.0586593332335 L 1026.609375 536.2932307691627 L 1027.669921875 544.612985539187 L 1028.73046875 553.0183401771068 L 1029.791015625 561.5097120829104 L 1030.8515625 570.0875195227763 L 1031.912109375 578.7521816290711 L 1032.97265625 587.504118400351 L 1034.033203125 596.3437507013606 L 1035.09375 605.2715002630343 L 1036.154296875 614.2877896824947 L 1037.21484375 623.3930424230543 L 1038.275390625 632.5876828142136 L 1039.3359375 641.8721360516633 L 1040.396484375 651.2468281972818 L 1041.45703125 660.7121861791378 L 1042.517578125 670.2686377914879 L 1043.578125 679.9166116947787" stroke-opacity="0.8" stroke-linecap="round" stroke-linejoin="round" stroke-miterlimit="10" stroke-width="2.5"/><text fill="rgb(46,125,50)" stroke="none" font-family="geogebra-sans-serif, sans-serif" font-size="16px" font-style="normal" font-weight="normal" text-decoration="normal" x="82" y="658" text-anchor="start" dominant-baseline="alphabetic" fill-opacity="1">f</text><text fill="none" stroke="rgb(255,255,255)" font-family="geogebra-sans-serif, sans-serif" font-size="16px" font-style="normal" font-weight="normal" text-decoration="normal" x="82" y="658" text-anchor="start" dominant-baseline="alphabetic" stroke-opacity="1" stroke-linejoin="bevel" stroke-miterlimit="10" stroke-width="3">f</text><text fill="rgb(46,125,50)" stroke="none" font-family="geogebra-sans-serif, sans-serif" font-size="16px" font-style="normal" font-weight="normal" text-decoration="normal" x="82" y="658" text-anchor="start" dominant-baseline="alphabetic" fill-opacity="1">f</text></g></g></svg>